<svg width="96" height="96" viewBox="0 0 96 96" fill="none" xmlns="http://www.w3.org/2000/svg">
  <!-- Sword (left side) -->
  <!-- Blade -->
  <path d="M18 12 L22 12 L22 60 L18 60 Z" fill="black"/>
  <!-- Point -->
  <path d="M18 12 L20 8 L22 12 Z" fill="black"/>
  <!-- Crossguard -->
  <rect x="16" y="28" width="8" height="2" fill="black"/>
  <!-- Hilt -->
  <rect x="19" y="60" width="2" height="12" fill="black"/>
  <!-- Pommel -->
  <circle cx="20" cy="76" r="2.5" fill="black"/>
  
  <!-- Double-bladed Axe (right side) -->
  <!-- Top blade (crescent facing left) -->
  <path d="M72 20 Q76 24 72 28 Q68 24 72 20 Z" fill="black"/>
  <!-- Bottom blade (crescent facing right) -->
  <path d="M72 68 Q76 64 72 60 Q68 64 72 68 Z" fill="black"/>
  <!-- Handle -->
  <rect x="71" y="28" width="2" height="40" fill="black"/>
  
  <!-- Bidirectional Arrows -->
  <!-- Arrow from sword to axe (curved down and right) -->
  <path d="M28 36 Q48 48 68 36" stroke="black" stroke-width="2.5" fill="none" stroke-linecap="round"/>
  <path d="M64 34 L68 36 L65 38" stroke="black" stroke-width="2.5" fill="none" stroke-linecap="round" stroke-linejoin="round"/>
  
  <!-- Arrow from axe to sword (curved up and left) -->
  <path d="M68 60 Q48 48 28 60" stroke="black" stroke-width="2.5" fill="none" stroke-linecap="round"/>
  <path d="M32 58 L28 60 L31 62" stroke="black" stroke-width="2.5" fill="none" stroke-linecap="round" stroke-linejoin="round"/>
</svg>
